<?xml version="1.0" encoding="utf-8"?>
<svg version="1.1" xmlns:xlink="http://www.w3.org/1999/xlink" width="157px" height="106px" xmlns="http://www.w3.org/2000/svg">
  <g transform="matrix(1 0 0 1 -305 341 )">
    <path d="M 150.13125 59.0603693181818  C 154.710416666667 64.3051609848485  157 70.3153409090909  157 77.0909090909091  C 157 85.0710227272727  153.93359375 91.8842329545455  147.80078125 97.5305397727273  C 141.66796875 103.176846590909  134.267708333333 106  125.6 106  L 36.6333333333333 106  C 26.5482638888889 106  17.9214409722222 102.700047348485  10.7528645833333 96.1001420454545  C 3.58428819444444 89.5002367424242  0 81.5577651515152  0 72.2727272727273  C 0 65.6477272727273  1.93524305555556 59.5873579545455  5.80572916666667 54.0916193181818  C 9.67621527777778 48.5958806818182  14.7732638888889 44.4928977272727  21.096875 41.7826704545455  C 20.9878472222222 40.3773674242424  20.9333333333333 39.2982954545455  20.9333333333333 38.5454545454545  C 20.9333333333333 27.905303030303  25.021875 18.8210227272727  33.1989583333333 11.2926136363636  C 41.3760416666667 3.76420454545455  51.2430555555556 0  62.8 0  C 71.4131944444444 0  79.2223090277778 2.20833333333333  86.22734375 6.625  C 93.2323784722222 11.0416666666667  98.3430555555556 16.813446969697  101.559375 23.9403409090909  C 105.375347222222 20.8285984848485  109.9 19.2727272727273  115.133333333333 19.2727272727273  C 120.911805555556 19.2727272727273  125.8453125 21.1548295454545  129.933854166667 24.9190340909091  C 134.022395833333 28.6832386363636  136.066666666667 33.2253787878788  136.066666666667 38.5454545454545  C 136.066666666667 42.3096590909091  134.949131944444 45.7727272727273  132.7140625 48.9346590909091  C 139.746354166667 50.4403409090909  145.552083333333 53.8155776515151  150.13125 59.0603693181818  Z " fill-rule="nonzero" fill="#d7d7d7" stroke="none" transform="matrix(1 0 0 1 305 -341 )" />
  </g>
</svg>