<?xml version="1.0" encoding="utf-8"?>
<svg version="1.1" xmlns:xlink="http://www.w3.org/1999/xlink" width="190px" height="264px" xmlns="http://www.w3.org/2000/svg">
  <g transform="matrix(1 0 0 1 -53 -67 )">
    <path d="M 187.625 145.65  C 189.208333333333 148.05  190 150.7  190 153.6  C 190 157.6  188.614583333333 161  185.84375 163.8  C 183.072916666667 166.6  179.708333333333 168  175.75 168  C 170.703125 168  166.744791666667 165.85  163.875 161.55  L 130.1796875 110.4  L 123 110.4  L 123 130.2  L 160.1640625 191.85  C 161.0546875 193.35  161.5 195  161.5 196.8  C 161.5 199.4  160.559895833333 201.65  158.6796875 203.55  C 156.799479166667 205.45  154.572916666667 206.4  152 206  L 123 206  L 123 247.2  C 123.5 251.8  121.8671875 255.75  118.6015625 259.05  C 115.3359375 262.35  111.427083333333 264  106.875 264  L 83.125 264  C 78.5729166666667 264  74.6640625 262.35  71.3984375 259.05  C 68.1328125 255.75  66.5 251.8  67 247.2  L 67 206  L 38 206  C 35.4270833333333 206.4  33.2005208333333 205.45  31.3203125 203.55  C 29.4401041666667 201.65  28.5 199.4  28.5 196.8  C 28.5 195  28.9453125 193.35  29.8359375 191.85  L 67 130.2  L 67 110.4  L 59.8203125 110.4  L 26.125 161.55  C 23.2552083333333 165.85  19.296875 168  14.25 168  C 10.2916666666667 168  6.92708333333333 166.6  4.15625 163.8  C 1.38541666666667 161  0 157.6  0 153.6  C 0 150.7  0.791666666666667 148.05  2.375 145.65  L 40.375 88.05  C 47.5989583333333 77.35  56.3072916666667 72  66.5 72  L 123.5 72  C 133.692708333333 72  142.401041666667 77.35  149.625 88.05  L 187.625 145.65  Z M 118.52734375 9.825  C 125.009114583333 16.375  128.25 24.3  128.25 33.6  C 128.25 42.9  125.009114583333 50.825  118.52734375 57.375  C 112.045572916667 63.925  104.203125 67.2  95 67.2  C 85.796875 67.2  77.9544270833333 63.925  71.47265625 57.375  C 64.9908854166667 50.825  61.75 42.9  61.75 33.6  C 61.75 24.3  64.9908854166667 16.375  71.47265625 9.825  C 77.9544270833333 3.27499999999998  85.796875 0  95 0  C 104.203125 0  112.045572916667 3.27499999999998  118.52734375 9.825  Z " fill-rule="nonzero" fill="#000000" stroke="none" transform="matrix(1 0 0 1 53 67 )" />
  </g>
</svg>