<?xml version="1.0" encoding="utf-8"?>
<svg version="1.1" xmlns:xlink="http://www.w3.org/1999/xlink" width="43px" height="50px" xmlns="http://www.w3.org/2000/svg">
  <g transform="matrix(1 0 0 1 -653 -434 )">
    <path d="M 35.3014322916667 45.8984375  C 35.6560329861111 45.5450148809524  35.8333333333333 45.1264880952381  35.8333333333333 44.6428571428571  C 35.8333333333333 44.1592261904762  35.6560329861111 43.7406994047619  35.3014322916667 43.3872767857143  C 34.9468315972222 43.0338541666667  34.5269097222222 42.8571428571429  34.0416666666667 42.8571428571429  C 33.5564236111111 42.8571428571429  33.1365017361111 43.0338541666667  32.7819010416667 43.3872767857143  C 32.4273003472222 43.7406994047619  32.25 44.1592261904762  32.25 44.6428571428571  C 32.25 45.1264880952381  32.4273003472222 45.5450148809524  32.7819010416667 45.8984375  C 33.1365017361111 46.2518601190476  33.5564236111111 46.4285714285714  34.0416666666667 46.4285714285714  C 34.5269097222222 46.4285714285714  34.9468315972222 46.2518601190476  35.3014322916667 45.8984375  Z M 38.5208333333333 28.3342633928571  C 39.1180555555556 26.5020461309524  39.4166666666667 24.8325892857143  39.4166666666667 23.3258928571429  C 39.4166666666667 19.8102678571429  37.8582899305556 18.0524553571429  34.7415364583333 18.0524553571429  C 34.2562934027778 18.0524553571429  33.7337239583333 18.0989583333333  33.173828125 18.1919642857143  C 32.8752170138889 17.6339285714286  32.3853081597222 17.192150297619  31.7041015625 16.8666294642857  C 31.0228949652778 16.5411086309524  30.3370225694444 16.3783482142857  29.646484375 16.3783482142857  C 28.9559461805556 16.3783482142857  28.3120659722222 16.5457589285714  27.71484375 16.8805803571429  C 26.7816840277778 15.8947172619048  25.6712239583333 15.4017857142857  24.3834635416667 15.4017857142857  C 23.9168836805556 15.4017857142857  23.3989800347222 15.4947916666667  22.8297526041667 15.6808035714286  C 22.2605251736111 15.8668154761905  21.8172743055556 16.0993303571429  21.5 16.3783482142857  L 21.5 7.14285714285715  C 21.5 6.17559523809524  21.1453993055556 5.33854166666666  20.4361979166667 4.63169642857143  C 19.7269965277778 3.92485119047619  18.8871527777778 3.57142857142857  17.9166666666667 3.57142857142857  C 16.96484375 3.57142857142857  16.1296657986111 3.93415178571428  15.4111328125 4.65959821428572  C 14.6925998263889 5.38504464285715  14.3333333333333 6.21279761904762  15 7.14285714285715  L 15 23.2142857142857  C 13.9600694444444 23.2142857142857  13.5074869791667 23.0747767857143  12.9755859375 22.7957589285714  C 12.4436848958333 22.5167410714286  11.9304470486111 22.2098214285714  11.4358723958333 21.875  C 10.9412977430556 21.5401785714286  10.3067491319444 21.2332589285714  9.5322265625 20.9542410714286  C 8.75770399305556 20.6752232142857  7.96918402777778 20.5357142857143  7.16666666666667 20.5357142857143  C 5.91623263888889 20.5357142857143  5.00640190972222 20.9495907738095  4.43717447916667 21.77734375  C 3.86794704861111 22.6050967261905  3.58333333333333 23.6793154761905  3.58333333333333 25  C 3.58333333333333 25.4464285714286  4.88042534722222 26.2834821428571  7.474609375 27.5111607142857  C 8.29578993055556 27.9575892857143  8.90234375 28.3017113095238  9.29427083333333 28.5435267857143  C 10.4887152777778 29.2875744047619  11.841796875 30.3292410714286  13.353515625 31.6685267857143  C 14.865234375 32.9892113095238  15.8543836805556 33.9285714285714  16.3209635416667 34.4866071428571  C 17.384765625 35.7700892857143  17.9166666666667 37.0721726190476  17.9166666666667 38.3928571428571  L 17.9166666666667 39  L 35.8333333333333 39  L 35.8333333333333 38.3928571428571  C 35.8333333333333 37.0535714285714  36.1319444444444 35.5003720238095  36.7291666666667 33.7332589285714  C 37.3263888888889 31.9661458333333  37.9236111111111 30.1664806547619  38.5208333333333 28.3342633928571  Z M 40.7464192708333 16.8526785714286  C 42.2488064236111 18.4523809523809  43 20.5636160714286  43 23.1863839285714  C 43 25.6603422619048  42.3561197916667 28.6551339285714  41.068359375 32.1707589285714  C 39.9672309027778 35.2213541666667  39.4166666666667 37.2953869047619  39.4166666666667 38.3928571428571  L 39.4166666666667 46.4285714285714  C 39.4166666666667 47.4144345238095  39.0667317708333 48.2561383928571  38.3668619791667 48.9536830357143  C 37.6669921875 49.6512276785714  36.8224826388889 50  35.8333333333333 50  L 17.9166666666667 50  C 16.9275173611111 50  16.0830078125 49.6512276785714  15.3831380208333 48.9536830357143  C 14.6832682291667 48.2561383928571  14.3333333333333 47.4144345238095  14.3333333333333 46.4285714285714  L 14.3333333333333 38.3928571428571  C 14.3333333333333 38.2068452380952  14.2913411458333 38.0068824404762  14.2073567708333 37.79296875  C 14.1233723958333 37.5790550595238  13.9927300347222 37.3604910714286  13.8154296875 37.1372767857143  C 13.6381293402778 36.9140625  13.4701605902778 36.7047991071429  13.3115234375 36.5094866071429  C 13.1528862847222 36.3141741071429  12.9429253472222 36.0909598214286  12.681640625 35.83984375  C 12.4203559027778 35.5887276785714  12.2197265625 35.3980654761905  12.0797526041667 35.2678571428571  C 11.9397786458333 35.1376488095238  11.7391493055556 34.9609375  11.4778645833333 34.7377232142857  C 11.2165798611111 34.5145089285714  11.0579427083333 34.3843005952381  11.001953125 34.3470982142857  C 9.62087673611111 33.1380208333333  8.41710069444444 32.2079613095238  7.390625 31.5569196428571  C 6.99869791666667 31.3151041666667  6.42013888888889 31.0081845238095  5.65494791666667 30.6361607142857  C 4.88975694444444 30.2641369047619  4.21788194444444 29.9200148809524  3.63932291666667 29.6037946428571  C 3.06076388888889 29.2875744047619  2.47287326388889 28.910900297619  1.87565104166667 28.4737723214286  C 1.27842881944444 28.0366443452381  0.816514756944445 27.5251116071429  0.489908854166667 26.9391741071429  C 0.163302951388889 26.3532366071429  0 25.7068452380952  0 25  C 0 22.6748511904762  0.625217013888889 20.7542782738095  1.87565104166667 19.23828125  C 3.12608506944444 17.7222842261905  4.88975694444444 16.9642857142857  7.16666666666667 16.9642857142857  C 8.43576388888889 16.9642857142857  9.63020833333333 17.1688988095238  11 17.578125  L 11 7.14285714285715  C 10.75 5.20833333333333  11.4592013888889 3.53422619047619  12.8776041666667 2.12053571428572  C 14.2960069444444 0.706845238095244  15.9663628472222 0  17.888671875 0  C 19.8483072916667 0  21.5373263888889 0.702194940476192  22.9557291666667 2.10658482142857  C 24.3741319444444 3.51097470238095  25.0833333333333 5.18973214285715  25.0833333333333 7.14285714285715  L 25.0833333333333 11.8582589285714  C 26.2404513888889 11.9326636904762  27.3509114583333 12.2767857142857  28.4147135416667 12.890625  C 28.806640625 12.8348214285714  29.2078993055556 12.8069196428571  29.6184895833333 12.8069196428571  C 31.5034722222222 12.8069196428571  33.1644965277778 13.3649553571429  34.6015625 14.4810267857143  C 37.1957465277778 14.4624255952381  39.2440321180556 15.2529761904762  40.7464192708333 16.8526785714286  Z " fill-rule="nonzero" fill="#000000" stroke="none" transform="matrix(1 0 0 1 653 434 )" />
  </g>
</svg>