<?xml version="1.0" encoding="utf-8"?>
<svg version="1.1" xmlns:xlink="http://www.w3.org/1999/xlink" width="27px" height="31px" xmlns="http://www.w3.org/2000/svg">
  <g transform="matrix(1 0 0 1 -313 -447 )">
    <path d="M 11.8611778846154 2.89760044642857  C 11.4609375 2.44205729166667  10.96875 2.21428571428571  10.3846153846154 2.21428571428571  C 9.81129807692308 2.21428571428571  9.32181490384615 2.43052455357143  8.91616586538461 2.86300223214286  C 8.51051682692308 3.29547991071429  8.30769230769231 3.81733630952381  8.30769230769231 4.42857142857143  L 8.30769230769231 13.2857142857143  L 8.30769230769231 19.9285714285714  L 5.85757211538462 16.4341517857143  C 5.4140625 15.8113839285714  4.83533653846154 15.5  4.12139423076923 15.5  C 3.55889423076923 15.5  3.07752403846154 15.7191220238095  2.67728365384615 16.1573660714286  C 2.27704326923077 16.5956101190476  2.07692307692308 17.1145833333333  2.07692307692308 17.7142857142857  C 2.07692307692308 18.210193452381  2.21754807692308 18.6542038690476  2.49879807692308 19.0463169642857  L 8.72956730769231 27.9034598214286  C 9.140625 28.4916294642857  9.69230769230769 28.7857142857143  10.3846153846154 28.7857142857143  L 22.0348557692308 28.7857142857143  C 22.2728365384615 28.7857142857143  22.4864783653846 28.7078683035714  22.67578125 28.5521763392857  C 22.8650841346154 28.396484375  22.9867788461538 28.1975446428571  23.0408653846154 27.9553571428571  L 24.5336538461538 21.5892857142857  C 24.7932692307692 20.4821428571429  24.9230769230769 19.3634672619048  24.9230769230769 18.2332589285714  L 24.9230769230769 14.4793526785714  C 24.9230769230769 14.0065104166667  24.7716346153846 13.5970982142857  24.46875 13.2511160714286  C 24.1658653846154 12.9051339285714  23.7980769230769 12.7321428571429  23.3653846153846 12.7321428571429  C 22.9326923076923 12.7321428571429  22.5649038461538 12.8936011904762  22.2620192307692 13.2165178571429  C 21.9591346153846 13.5394345238095  21.8076923076923 13.9315476190476  21.8076923076923 14.3928571428571  L 21.2884615384615 14.3928571428571  L 21.2884615384615 13.3376116071429  C 21.2884615384615 12.7840401785714  21.1153846153846 12.3140811011905  20.7692307692308 11.927734375  C 20.4230769230769 11.5413876488095  19.9903846153846 11.3482142857143  19.4711538461538 11.3482142857143  C 18.9735576923077 11.3482142857143  18.5462740384615 11.5385044642857  18.1893028846154 11.9190848214286  C 17.8323317307692 12.2996651785714  17.6538461538462 12.7552083333333  17.6538461538462 13.2857142857143  L 17.6538461538462 14.3928571428571  L 17.1346153846154 14.3928571428571  L 17.1346153846154 12.8359375  C 17.1346153846154 12.2016369047619  16.9344951923077 11.6567150297619  16.5342548076923 11.201171875  C 16.1340144230769 10.7456287202381  15.6418269230769 10.5178571428571  15.0576923076923 10.5178571428571  C 14.484375 10.5178571428571  13.9948918269231 10.7340959821429  13.5892427884615 11.1665736607143  C 13.18359375 11.5990513392857  12.9807692307692 12.1209077380952  12.9807692307692 12.7321428571429  L 12.9807692307692 14.3928571428571  L 12.4615384615385 14.3928571428571  L 12.4615384615385 4.53236607142857  C 12.4615384615385 3.89806547619047  12.2614182692308 3.35314360119047  11.8611778846154 2.89760044642857  Z M 7.44771634615385 1.29743303571429  C 8.25901442307693 0.43247767857143  9.23798076923077 0  10.3846153846154 0  C 11.5420673076923 0  12.5237379807692 0.446893601190478  13.3296274038462 1.34068080357143  C 14.1355168269231 2.23446800595238  14.5384615384615 3.29836309523809  14.5384615384615 4.53236607142857  L 14.5384615384615 8.33816964285714  C 14.7764423076923 8.31510416666667  14.9495192307692 8.30357142857143  15.0576923076923 8.30357142857143  C 16.1286057692308 8.30357142857143  17.0643028846154 8.70145089285714  17.8647836538462 9.49720982142857  C 18.3731971153846 9.25502232142857  18.9086538461538 9.13392857142857  19.4711538461538 9.13392857142857  C 20.6935096153846 9.13392857142857  21.6887019230769 9.63560267857143  22.4567307692308 10.6389508928571  C 22.7487980769231 10.5582217261905  23.0516826923077 10.5178571428571  23.3653846153846 10.5178571428571  C 24.3822115384615 10.5178571428571  25.2421875 10.9070870535714  25.9453125 11.685546875  C 26.6484375 12.4640066964286  27 13.395275297619  27 14.4793526785714  L 27 18.2332589285714  C 27 19.571056547619  26.8485576923077 20.8684895833333  26.5456730769231 22.1255580357143  L 25.0528846153846 28.4916294642857  C 24.8798076923077 29.229724702381  24.5120192307692 29.8323102678571  23.9495192307692 30.2993861607143  C 23.3870192307692 30.7664620535714  22.7487980769231 31  22.0348557692308 31  L 10.3846153846154 31  C 9.73557692307692 31  9.11628605769231 30.8414248511905  8.52674278846154 30.5242745535714  C 7.93719951923077 30.2071242559524  7.44771634615385 29.7775297619048  7.05829326923077 29.2354910714286  L 0.827524038461538 20.3783482142857  C 0.275841346153846 19.5941220238095  0 18.7061011904762  0 17.7142857142857  C 0 16.5033482142857  0.402944711538462 15.4625186011905  1.20883413461538 14.591796875  C 2.01472355769231 13.7210751488095  2.98557692307692 13.2857142857143  4.12139423076923 13.2857142857143  C 4.88942307692308 13.2857142857143  5.59254807692308 13.487537202381  6.23076923076923 13.8911830357143  L 6.23076923076923 4.42857142857143  C 6.23076923076923 3.20610119047619  6.63641826923077 2.16238839285714  7.44771634615385 1.29743303571429  Z M 11.9423076923077 24.3571428571429  L 12.4615384615385 24.3571428571429  L 12.4615384615385 17.7142857142857  L 11.9423076923077 17.7142857142857  L 11.9423076923077 24.3571428571429  Z M 16.0961538461538 24.3571428571429  L 16.6153846153846 24.3571428571429  L 16.6153846153846 17.7142857142857  L 16.0961538461538 17.7142857142857  L 16.0961538461538 24.3571428571429  Z M 20.25 24.3571428571429  L 20.7692307692308 24.3571428571429  L 20.7692307692308 17.7142857142857  L 20.25 17.7142857142857  L 20.25 24.3571428571429  Z " fill-rule="nonzero" fill="#000000" stroke="none" transform="matrix(1 0 0 1 313 447 )" />
  </g>
</svg>