<?xml version="1.0" encoding="utf-8"?>
<svg version="1.1" xmlns:xlink="http://www.w3.org/1999/xlink" width="44px" height="44px" xmlns="http://www.w3.org/2000/svg">
  <g transform="matrix(1 0 0 1 -966 538 )">
    <path d="M 42.962962962963 32.8888888888889  C 43.6543209876543 33.5802469135802  44 34.4197530864197  44 35.4074074074074  C 44 36.3950617283951  43.6543209876543 37.2345679012346  42.962962962963 37.9259259259259  L 37.9259259259259 42.962962962963  C 37.2345679012346 43.6543209876543  36.3950617283951 44  35.4074074074074 44  C 34.4197530864198 44  33.5802469135803 43.6543209876543  32.8888888888889 42.962962962963  L 22 32.0740740740741  L 11.1111111111111 42.962962962963  C 10.4197530864198 43.6543209876543  9.58024691358025 44  8.59259259259259 44  C 7.60493827160494 44  6.76543209876543 43.6543209876543  6.07407407407407 42.962962962963  L 1.03703703703704 37.9259259259259  C 0.345679012345679 37.2345679012346  0 36.3950617283951  0 35.4074074074074  C 0 34.4197530864197  0.345679012345679 33.5802469135802  1.03703703703704 32.8888888888889  L 11.9259259259259 22  L 1.03703703703704 11.1111111111111  C 0.345679012345679 10.4197530864197  0 9.58024691358025  0 8.59259259259259  C 0 7.60493827160494  0.345679012345679 6.76543209876543  1.03703703703704 6.07407407407408  L 6.07407407407407 1.03703703703704  C 6.76543209876543 0.345679012345677  7.60493827160494 0  8.59259259259259 0  C 9.58024691358025 0  10.4197530864198 0.345679012345677  11.1111111111111 1.03703703703704  L 22 11.9259259259259  L 32.8888888888889 1.03703703703704  C 33.5802469135803 0.345679012345677  34.4197530864198 0  35.4074074074074 0  C 36.3950617283951 0  37.2345679012346 0.345679012345677  37.9259259259259 1.03703703703704  L 42.962962962963 6.07407407407408  C 43.6543209876543 6.76543209876543  44 7.60493827160494  44 8.59259259259259  C 44 9.58024691358025  43.6543209876543 10.4197530864197  42.962962962963 11.1111111111111  L 32.0740740740741 22  L 42.962962962963 32.8888888888889  Z " fill-rule="nonzero" fill="#000000" stroke="none" transform="matrix(1 0 0 1 966 -538 )" />
  </g>
</svg>